<svg xmlns="http://www.w3.org/2000/svg" xmlns:xlink="http://www.w3.org/1999/xlink" xmlns:lucid="lucid" width="2625.33" height="1412.28"><g transform="translate(500 -140)" lucid:page-tab-id="xSi-oTZo5f3C"><path d="M137.6 360c16.05 0 29.07 15.22 29.07 34s-13.02 34-29.07 34H50.4c-16.05 0-29.07-15.22-29.07-34s13.02-34 29.07-34z" stroke="#000" stroke-width="4" fill="#fff"/><use xlink:href="#a" transform="matrix(1,0,0,1,26.3333333333336,365) translate(19.129074074074097 34.094444444444434)"/><path d="M1538.52 360c16.05 0 29.06 15.22 29.06 34s-13 34-29.06 34h-87.2c-16.06 0-29.07-15.22-29.07-34s13-34 29.07-34z" stroke="#000" stroke-width="4" fill="#fff"/><use xlink:href="#b" transform="matrix(1,0,0,1,1427.2500000777904,365) translate(20.014567901234585 34.094444444444434)"/><path d="M861.6 160c16.05 0 29.07 15.22 29.07 34s-13.02 34-29.07 34h-87.2c-16.05 0-29.07-15.22-29.07-34s13.02-34 29.07-34z" stroke="#000" stroke-width="4" fill="#fff"/><use xlink:href="#c" transform="matrix(1,0,0,1,750.3333333333333,165) translate(20.014567901234592 34.094444444444434)"/><path d="M1354.85 1143.6c16.05 0 29.07 15.22 29.07 34 0 18.77-13.02 34-29.07 34h-87.2c-16.05 0-29.07-15.23-29.07-34 0-18.78 13.02-34 29.07-34z" stroke="#000" stroke-width="4" fill="#fff"/><use xlink:href="#d" transform="matrix(1,0,0,1,1243.583333439411,1148.5941328416243) translate(37.07197530864199 34.094444444444434)"/><path d="M1036.27 876.28c16.05 0 29.06 15.22 29.06 34 0 18.77-13 34-29.06 34h-87.2c-16.06 0-29.07-15.23-29.07-34 0-18.78 13-34 29.07-34z" stroke="#000" stroke-width="4" fill="#fff"/><use xlink:href="#e" transform="matrix(1,0,0,1,925,881.2750000000075) translate(11.672283950617315 34.094444444444434)"/><path d="M816.03 230.35L116.4 354.05" stroke="#000" stroke-width="4" fill="none"/><path d="M821.3 231.45l-4.97.88-.4-2.33h5.12z"/><path d="M100.37 356.87l13.24-7.04 1.63 9.12z" stroke="#000" stroke-width="4"/><use xlink:href="#f" transform="matrix(1,0,0,1,391.3337471709999,243.26719066508588) translate(0 32.177777777777756)"/><path d="M819.97 230.37l652.6 123.4" stroke="#000" stroke-width="4" fill="none"/><path d="M819.64 232.35l-4.96-.94.27-1.4h5.14z"/><path d="M1488.56 356.8l-14.88 1.9 1.72-9.1z" stroke="#000" stroke-width="4"/><use xlink:href="#g" transform="matrix(1,0,0,1,1127.471387514526,243.66456903438217) translate(0 32.177777777777756)"/><path d="M95.75 430.97L384.8 592.13" stroke="#000" stroke-width="4" fill="none"/><path d="M94.82 432.75l-4.4-2.46.15-.3h5.78z"/><path d="M399 600.05l-14.7-2.9 4.5-8.1z" stroke="#000" stroke-width="4"/><path d="M92.23 430.93l-304.76 159.72" stroke="#000" stroke-width="4" fill="none"/><path d="M97.6 430.38l-4.5 2.34L91.7 430h5.7z"/><path d="M-226.93 598.2l10.48-10.73 4.3 8.2z" stroke="#000" stroke-width="4"/><path d="M-340 917.28c0 26.66-31.34 48.27-70 48.27s-70-21.6-70-48.27S-448.66 869-410 869s70 21.6 70 48.28z" stroke="#000" stroke-width="3" fill="#e5e5e5"/><use xlink:href="#h" transform="matrix(1,0,0,1,-475,874) translate(34.357469135802475 23.288888888888877)"/><use xlink:href="#i" transform="matrix(1,0,0,1,-475,874) translate(7.7127160493827365 58.22222222222219)"/><path d="M405.92 676.76l152.46 188.82" stroke="#000" stroke-width="4" fill="none"/><path d="M407.5 675.54l-3.1 2.5-2.3-2.84h5.14z"/><path d="M568.6 878.24l-12.57-8.2 7.22-5.8z" stroke="#000" stroke-width="4"/><path d="M403.5 676.83L271.1 864.7" stroke="#000" stroke-width="4" fill="none"/><path d="M405.12 678.03l-3.27-2.3.37-.53h4.9z"/><path d="M261.73 877.98l4.43-14.33 7.58 5.35z" stroke="#000" stroke-width="4"/><path d="M256.9 956.95L155.8 1111.6" stroke="#000" stroke-width="4" fill="none"/><path d="M258.55 958.1l-3.35-2.2.4-.63h4.8z"/><path d="M146.88 1125.2l3.92-14.46 7.76 5.07z" stroke="#000" stroke-width="4"/><path d="M258.7 957.15l56.7 152.17" stroke="#000" stroke-width="4" fill="none"/><path d="M260.6 956.5l-3.76 1.4-.97-2.63h4.26z"/><path d="M321.07 1124.57l-9.32-11.75 8.7-3.24z" stroke="#000" stroke-width="4"/><path d="M1493.1 430.82l-339.68 152.1" stroke="#000" stroke-width="4" fill="none"/><path d="M1498.47 430.6l-4.6 2.06-1.2-2.66h5.53z"/><path d="M1138.57 589.56l11.13-10.07 3.8 8.46z" stroke="#000" stroke-width="4"/><path d="M1781.6 876.28c16.05 0 29.07 15.22 29.07 34 0 18.77-13.02 34-29.07 34h-87.2c-16.05 0-29.07-15.23-29.07-34 0-18.78 13.02-34 29.07-34z" stroke="#000" stroke-width="4" fill="#fff"/><use xlink:href="#j" transform="matrix(1,0,0,1,1670.3333333333335,881.2750000000075) translate(31.19975308641976 34.094444444444434)"/><path d="M1496.77 430.76L1871.6 583.6" stroke="#000" stroke-width="4" fill="none"/><path d="M1496.06 432.63l-4.68-1.9.3-.73h5.45z"/><path d="M1886.67 589.76l-14.96-1.1 3.5-8.58z" stroke="#000" stroke-width="4"/><path d="M1737.52 948.22l-42.47 171.3" stroke="#000" stroke-width="4" fill="none"/><path d="M1739.45 948.75l-3.88-.97.37-1.5h4.12z"/><path d="M1691.14 1135.3l-1.07-14.95 9 2.23z" stroke="#000" stroke-width="4"/><path d="M1738.95 948.04l245.6 456.66" stroke="#000" stroke-width="4" fill="none"/><path d="M1740.73 947.13l-3.52 1.9-1.47-2.75h4.54z"/><path d="M1992.27 1419.02l-10.84-10.36 8.16-4.4z" stroke="#000" stroke-width="4"/><path d="M213.33 1180.9c0 26.67-31.34 48.28-70 48.28s-70-21.6-70-48.27c0-26.65 31.34-48.27 70-48.27s70 21.62 70 48.28z" stroke="#000" stroke-width="4" fill="#e5e5e5"/><use xlink:href="#h" transform="matrix(1,0,0,1,78.3333333333332,1137.6316328416467) translate(34.357469135802475 23.288888888888877)"/><use xlink:href="#i" transform="matrix(1,0,0,1,78.3333333333332,1137.6316328416467) translate(7.7127160493827365 58.22222222222219)"/><path d="M393.33 1180.9c0 26.67-31.34 48.28-70 48.28s-70-21.6-70-48.27c0-26.65 31.34-48.27 70-48.27s70 21.62 70 48.28z" stroke="#000" stroke-width="4" fill="#e5e5e5"/><use xlink:href="#k" transform="matrix(1,0,0,1,258.33333333333326,1137.6316328416467) translate(7.7127160493827365 50.47638888888888)"/><path d="M2065.33 1475c0 26.66-31.34 48.28-70 48.28s-70-21.62-70-48.28 31.34-48.28 70-48.28 70 21.62 70 48.28z" stroke="#000" stroke-width="4" fill="#e5e5e5"/><use xlink:href="#k" transform="matrix(1,0,0,1,1930.333333333333,1431.7249999999926) translate(7.7127160493827365 50.47638888888888)"/><path d="M1660 1478.2c0 26.66-31.34 48.27-70 48.27s-70-21.6-70-48.27c0-26.66 31.34-48.28 70-48.28s70 21.62 70 48.28z" stroke="#000" stroke-width="4" fill="#e5e5e5"/><use xlink:href="#h" transform="matrix(1,0,0,1,1525,1434.9249999999747) translate(34.357469135802475 23.288888888888877)"/><use xlink:href="#i" transform="matrix(1,0,0,1,1525,1434.9249999999747) translate(7.7127160493827365 58.22222222222219)"/><path d="M675.33 1484c0 26.66-31.34 48.28-70 48.28s-70-21.62-70-48.28 31.34-48.28 70-48.28 70 21.62 70 48.28z" stroke="#000" stroke-width="4" fill="#e5e5e5"/><use xlink:href="#k" transform="matrix(1,0,0,1,540.3333333333331,1440.7249999999926) translate(7.7127160493827365 50.47638888888888)"/><path d="M448.27 605.2c16.05 0 29.06 15.22 29.06 34s-13 34-29.06 34h-87.2c-16.06 0-29.07-15.22-29.07-34s13-34 29.07-34z" stroke="#000" stroke-width="4" fill="#fff"/><use xlink:href="#l" transform="matrix(1,0,0,1,337.0000000000001,610.2000000000116) translate(20.107777777777798 34.094444444444434)"/><path d="M301.6 885.28c16.05 0 29.07 15.22 29.07 34 0 18.77-13.02 34-29.07 34h-87.2c-16.05 0-29.07-15.23-29.07-34 0-18.78 13.02-34 29.07-34z" stroke="#000" stroke-width="4" fill="#fff"/><use xlink:href="#d" transform="matrix(1,0,0,1,190.33333333333337,890.2750000000075) translate(37.07197530864199 34.094444444444434)"/><path d="M1094.33 1484c0 26.66-31.34 48.28-70 48.28s-70-21.62-70-48.28 31.34-48.28 70-48.28 70 21.62 70 48.28z" stroke="#000" stroke-width="4" fill="#e5e5e5"/><use xlink:href="#k" transform="matrix(1,0,0,1,959.333333361621,1440.7249999999926) translate(7.7127160493827365 50.47638888888888)"/><path d="M1936.27 594.2c16.05 0 29.06 15.22 29.06 34s-13 34-29.06 34h-87.2c-16.06 0-29.07-15.22-29.07-34s13-34 29.07-34z" stroke="#000" stroke-width="4" fill="#fff"/><use xlink:href="#e" transform="matrix(1,0,0,1,1825,599.2000000000116) translate(11.672283950617315 34.094444444444434)"/><path d="M1891.48 665.8l-140 190.16" stroke="#000" stroke-width="4" fill="none"/><path d="M1893.06 667.04l-3.22-2.37.34-.47h4.97z"/><path d="M1741.84 869.06l4.72-14.23 7.47 5.5z" stroke="#000" stroke-width="4"/><path d="M2105.33 917.28c0 26.66-31.34 48.27-70 48.27s-70-21.6-70-48.27 31.34-48.28 70-48.28 70 21.6 70 48.28z" stroke="#000" stroke-width="4" fill="#e5e5e5"/><use xlink:href="#k" transform="matrix(1,0,0,1,1970.333333333334,874) translate(7.7127160493827365 50.47638888888888)"/><path d="M1893.82 665.84l128.43 182.56" stroke="#000" stroke-width="4" fill="none"/><path d="M1895.48 664.73l-3.27 2.3-1.98-2.83h4.9z"/><path d="M2031.6 861.7l-12-9 7.6-5.33z" stroke="#000" stroke-width="4"/><path d="M-189.07 603.2c16.06 0 29.07 15.22 29.07 34s-13 34-29.07 34h-87.2c-16.05 0-29.06-15.22-29.06-34s13-34 29.06-34z" stroke="#000" stroke-width="4" fill="#fff"/><use xlink:href="#j" transform="matrix(1,0,0,1,-300.33333333333326,608.2000000000116) translate(31.19975308641976 34.094444444444434)"/><path d="M-103.73 883.28c16.05 0 29.06 15.22 29.06 34 0 18.77-13 34-29.06 34h-87.2c-16.06 0-29.07-15.23-29.07-34 0-18.78 13-34 29.07-34z" stroke="#000" stroke-width="4" fill="#fff"/><use xlink:href="#b" transform="matrix(1,0,0,1,-215,888.2750000000075) translate(20.014567901234585 34.094444444444434)"/><path d="M-231.9 675.05l75.94 185.2" stroke="#000" stroke-width="4" fill="none"/><path d="M-230.04 674.34l-3.7 1.52-1.1-2.66h4.33z"/><path d="M-149.8 875.3l-9.7-11.45 8.6-3.52z" stroke="#000" stroke-width="4"/><path d="M-234 674.68L-394.68 850.7" stroke="#000" stroke-width="4" fill="none"/><path d="M-232.57 676.06l-2.96-2.7.16-.16h5.4z"/><path d="M-405.64 862.72l6.2-13.66 6.84 6.25z" stroke="#000" stroke-width="4"/><path d="M-192 1180.46c0 26.66-31.34 48.27-70 48.27s-70-21.6-70-48.27c0-26.66 31.34-48.28 70-48.28s70 21.62 70 48.28z" stroke="#000" stroke-width="4" fill="#e5e5e5"/><use xlink:href="#h" transform="matrix(1,0,0,1,-327,1137.1816328416128) translate(34.357469135802475 23.288888888888877)"/><use xlink:href="#i" transform="matrix(1,0,0,1,-327,1137.1816328416128) translate(7.7127160493827365 58.22222222222219)"/><path d="M14.67 1178.9c0 26.67-31.34 48.28-70 48.28s-70-21.6-70-48.27c0-26.65 31.34-48.27 70-48.27s70 21.62 70 48.28z" stroke="#000" stroke-width="4" fill="#e5e5e5"/><use xlink:href="#k" transform="matrix(1,0,0,1,-120.3333333333332,1135.6316328416467) translate(7.7127160493827365 50.47638888888888)"/><path d="M-146.4 955.05l80.5 153.45" stroke="#000" stroke-width="4" fill="none"/><path d="M-144.6 954.16l-3.55 1.86-1.44-2.75h4.53z"/><path d="M-58.34 1122.9l-10.73-10.48 8.2-4.3z" stroke="#000" stroke-width="4"/><path d="M-148.42 954.95l-101.2 156.15" stroke="#000" stroke-width="4" fill="none"/><path d="M-146.77 956.08l-3.36-2.17.4-.63h4.78z"/><path d="M-258.48 1124.75l3.87-14.5 7.77 5.05z" stroke="#000" stroke-width="4"/><path d="M616.27 885.28c16.05 0 29.06 15.22 29.06 34 0 18.77-13 34-29.06 34h-87.2c-16.06 0-29.07-15.23-29.07-34 0-18.78 13-34 29.07-34z" stroke="#000" stroke-width="4" fill="#fff"/><use xlink:href="#j" transform="matrix(1,0,0,1,505,890.2750000000075) translate(31.19975308641976 34.094444444444434)"/><path d="M738.67 1180.9c0 26.67-31.34 48.28-70 48.28s-70-21.6-70-48.27c0-26.65 31.34-48.27 70-48.27s70 21.62 70 48.28z" stroke="#000" stroke-width="4" fill="#e5e5e5"/><use xlink:href="#h" transform="matrix(1,0,0,1,603.6666666666666,1137.6316328416467) translate(34.357469135802475 23.288888888888877)"/><use xlink:href="#i" transform="matrix(1,0,0,1,603.6666666666666,1137.6316328416467) translate(7.7127160493827365 58.22222222222219)"/><path d="M573.63 957.03l84.12 153.66" stroke="#000" stroke-width="4" fill="none"/><path d="M575.4 956.1l-3.5 1.93-1.5-2.75h4.55z"/><path d="M665.56 1124.95l-10.92-10.28 8.13-4.46z" stroke="#000" stroke-width="4"/><path d="M539.6 1146.9c16.05 0 29.07 15.23 29.07 34 0 18.78-13.02 34-29.07 34h-87.2c-16.05 0-29.07-15.22-29.07-34 0-18.77 13.02-34 29.07-34z" stroke="#000" stroke-width="4" fill="#fff"/><use xlink:href="#b" transform="matrix(1,0,0,1,428.3333333333333,1151.9066328416543) translate(20.014567901234585 34.094444444444434)"/><path d="M571.92 957.13l-67.4 166.7" stroke="#000" stroke-width="4" fill="none"/><path d="M573.75 957.93l-3.7-1.5.46-1.15h4.32z"/><path d="M498.43 1138.9l1.05-14.96 8.6 3.48z" stroke="#000" stroke-width="4"/><path d="M496.9 1218.7l98.2 194.72" stroke="#000" stroke-width="4" fill="none"/><path d="M498.7 1217.84l-3.56 1.8-1.38-2.73h4.48z"/><path d="M602.42 1427.94l-10.56-10.65 8.27-4.18z" stroke="#000" stroke-width="4"/><path d="M465.33 1484c0 26.66-31.34 48.28-70 48.28s-70-21.62-70-48.28 31.34-48.28 70-48.28 70 21.62 70 48.28z" stroke="#000" stroke-width="4" fill="#e5e5e5"/><use xlink:href="#h" transform="matrix(1,0,0,1,330.33333333333337,1440.7249999999926) translate(34.357469135802475 23.288888888888877)"/><use xlink:href="#i" transform="matrix(1,0,0,1,330.33333333333337,1440.7249999999926) translate(7.7127160493827365 58.22222222222219)"/><path d="M495.14 1218.7l-92.74 194.6" stroke="#000" stroke-width="4" fill="none"/><path d="M496.92 1219.62l-3.6-1.72.46-1h4.44z"/><path d="M395.4 1427.98l1.95-14.88 8.37 4z" stroke="#000" stroke-width="4"/><path d="M1176.27 594.2c16.05 0 29.06 15.22 29.06 34s-13 34-29.06 34h-87.2c-16.06 0-29.07-15.22-29.07-34s13-34 29.07-34z" stroke="#000" stroke-width="4" fill="#fff"/><use xlink:href="#j" transform="matrix(1,0,0,1,1065,599.2000000000116) translate(31.19975308641976 34.094444444444434)"/><path d="M1131.56 665.86l-126.28 189.5" stroke="#000" stroke-width="4" fill="none"/><path d="M1133.2 667.02l-3.34-2.22.4-.6h4.8z"/><path d="M996.26 868.9l4.05-14.45 7.72 5.14z" stroke="#000" stroke-width="4"/><path d="M1436.93 877.72c16.06 0 29.07 15.23 29.07 34 0 18.78-13 34-29.07 34h-87.2c-16.05 0-29.06-15.22-29.06-34 0-18.77 13-34 29.06-34z" stroke="#000" stroke-width="4" fill="#fff"/><use xlink:href="#l" transform="matrix(1,0,0,1,1325.6666666666674,882.7249999999924) translate(20.107777777777798 34.094444444444434)"/><path d="M1134.22 665.46l241.46 195.94" stroke="#000" stroke-width="4" fill="none"/><path d="M1133 667.05l-3.5-2.85h5.8z"/><path d="M1388.3 871.65l-14-5.4 5.85-7.2z" stroke="#000" stroke-width="4"/><path d="M993.68 948l96.1 162.6" stroke="#000" stroke-width="4" fill="none"/><path d="M995.43 947.02l-3.44 2.04-1.66-2.78H995z"/><path d="M1098.04 1124.6l-11.25-9.92 7.97-4.7z" stroke="#000" stroke-width="4"/><path d="M1171.33 1180.46c0 26.66-31.34 48.27-70 48.27s-70-21.6-70-48.27c0-26.66 31.34-48.28 70-48.28s70 21.62 70 48.28z" stroke="#000" stroke-width="4" fill="#e5e5e5"/><use xlink:href="#k" transform="matrix(1,0,0,1,1036.3333333899081,1137.1816328416128) translate(7.7127160493827365 50.47638888888888)"/><path d="M935.02 1141.6c16.05 0 29.06 15.22 29.06 34 0 18.77-13 34-29.06 34h-87.2c-16.06 0-29.07-15.23-29.07-34 0-18.78 13-34 29.07-34z" stroke="#000" stroke-width="4" fill="#fff"/><use xlink:href="#l" transform="matrix(1,0,0,1,823.7500000070718,1146.5941328416243) translate(20.107777777777798 34.094444444444434)"/><path d="M991.74 948.05l-89.77 171.4" stroke="#000" stroke-width="4" fill="none"/><path d="M993.5 949.02l-3.56-1.86.47-.88h4.52z"/><path d="M894.42 1133.86l2.5-14.8 8.22 4.3z" stroke="#000" stroke-width="4"/><path d="M878.67 1484c0 26.66-31.34 48.28-70 48.28s-70-21.62-70-48.28 31.34-48.28 70-48.28 70 21.62 70 48.28z" stroke="#000" stroke-width="4" fill="#e5e5e5"/><use xlink:href="#h" transform="matrix(1,0,0,1,743.6666666666666,1440.7249999999926) translate(34.357469135802475 23.288888888888877)"/><use xlink:href="#i" transform="matrix(1,0,0,1,743.6666666666666,1440.7249999999926) translate(7.7127160493827365 58.22222222222219)"/><path d="M892.44 1213.3l120.22 200.9" stroke="#000" stroke-width="4" fill="none"/><path d="M894.2 1212.33l-3.45 2.05-1.66-2.8h4.65z"/><path d="M1021 1428.17l-11.3-9.86 7.96-4.75z" stroke="#000" stroke-width="4"/><path d="M890.72 1213.47l-74.12 198.95" stroke="#000" stroke-width="4" fill="none"/><path d="M892.57 1214.2l-3.74-1.38.45-1.23h4.27z"/><path d="M810.93 1427.66l.63-15 8.7 3.25z" stroke="#000" stroke-width="4"/><path d="M1392.55 949.57l-72.43 171.1" stroke="#000" stroke-width="4" fill="none"/><path d="M1394.38 950.4l-3.7-1.57.48-1.1h4.35z"/><path d="M1313.77 1135.63l1.3-14.94 8.53 3.6z" stroke="#000" stroke-width="4"/><path d="M1562.25 1180.9c0 26.67-31.34 48.28-70 48.28s-70-21.6-70-48.27c0-26.65 31.34-48.27 70-48.27s70 21.62 70 48.28z" stroke="#000" stroke-width="4" fill="#e5e5e5"/><use xlink:href="#h" transform="matrix(1,0,0,1,1427.2500000777904,1137.6316328416467) translate(34.357469135802475 23.288888888888877)"/><use xlink:href="#i" transform="matrix(1,0,0,1,1427.2500000777904,1137.6316328416467) translate(7.7127160493827365 58.22222222222219)"/><path d="M1394.28 949.48l87.15 161.15" stroke="#000" stroke-width="4" fill="none"/><path d="M1396.07 948.58l-3.52 1.9-1.5-2.75h4.56z"/><path d="M1489.17 1124.94l-10.86-10.35 8.16-4.42z" stroke="#000" stroke-width="4"/><path d="M1310.36 1215.38l-95.88 192.2" stroke="#000" stroke-width="4" fill="none"/><path d="M1312.12 1216.32l-3.58-1.78.47-.95h4.5z"/><path d="M1207.22 1422.13l2.22-14.83 8.3 4.14z" stroke="#000" stroke-width="4"/><path d="M1312.12 1215.4l93.28 192.07" stroke="#000" stroke-width="4" fill="none"/><path d="M1313.95 1214.57l-3.6 1.74-1.32-2.7h4.44z"/><path d="M1412.5 1422.1l-10.4-10.8 8.34-4.06z" stroke="#000" stroke-width="4"/><path d="M1485.33 1478.2c0 26.66-31.34 48.27-70 48.27s-70-21.6-70-48.27c0-26.66 31.34-48.28 70-48.28s70 21.62 70 48.28z" stroke="#000" stroke-width="4" fill="#e5e5e5"/><use xlink:href="#h" transform="matrix(1,0,0,1,1350.3333333333333,1434.9249999999752) translate(34.357469135802475 23.288888888888877)"/><use xlink:href="#i" transform="matrix(1,0,0,1,1350.3333333333333,1434.9249999999752) translate(7.7127160493827365 58.22222222222219)"/><path d="M1274.33 1478.2c0 26.66-31.34 48.27-70 48.27s-70-21.6-70-48.27c0-26.66 31.34-48.28 70-48.28s70 21.62 70 48.28z" stroke="#000" stroke-width="4" fill="#e5e5e5"/><use xlink:href="#k" transform="matrix(1,0,0,1,1139.3333333616208,1434.9249999999752) translate(7.7127160493827365 50.47638888888888)"/><path d="M1733.18 1143.6c16.06 0 29.07 15.22 29.07 34 0 18.77-13 34-29.07 34h-87.2c-16.05 0-29.06-15.23-29.06-34 0-18.78 13-34 29.06-34z" stroke="#000" stroke-width="4" fill="#fff"/><use xlink:href="#a" transform="matrix(1,0,0,1,1621.916666744457,1148.5941328416243) translate(19.129074074074097 34.094444444444434)"/><path d="M1688.74 1215.4l-89.16 191.9" stroke="#000" stroke-width="4" fill="none"/><path d="M1690.53 1216.3l-3.62-1.7.48-1h4.4z"/><path d="M1592.73 1422.05l1.8-14.9 8.4 3.92z" stroke="#000" stroke-width="4"/><path d="M1845.33 1478.2c0 26.66-31.34 48.27-70 48.27s-70-21.6-70-48.27c0-26.66 31.34-48.28 70-48.28s70 21.62 70 48.28z" stroke="#000" stroke-width="4" fill="#e5e5e5"/><g><use xlink:href="#k" transform="matrix(1,0,0,1,1710.333333333333,1434.9249999999747) translate(7.7127160493827365 50.47638888888888)"/></g><path d="M1690.33 1215.45l76.56 191.36" stroke="#000" stroke-width="4" fill="none"/><path d="M1692.2 1214.76l-3.7 1.48-1.07-2.65h4.3z"/><path d="M1772.93 1421.9l-9.6-11.5 8.6-3.45z" stroke="#000" stroke-width="4"/><defs><path d="M212-179c-10-28-35-45-73-45-59 0-87 40-87 99 0 60 29 101 89 101 43 0 62-24 78-52l27 14C228-24 195 4 139 4 59 4 22-46 18-125c-6-104 99-153 187-111 19 9 31 26 39 46" id="m"/><path d="M140-251c81 0 123 46 123 126C263-46 219 4 140 4 59 4 17-45 17-125s42-126 123-126zm0 227c63 0 89-41 89-101s-29-99-89-99c-61 0-89 39-89 99S79-25 140-24" id="n"/><path d="M190 0L58-211 59 0H30v-248h39L202-35l-2-213h31V0h-41" id="o"/><path d="M185-189c-5-48-123-54-124 2 14 75 158 14 163 119 3 78-121 87-175 55-17-10-28-26-33-46l33-7c5 56 141 63 141-1 0-78-155-14-162-118-5-82 145-84 179-34 5 7 8 16 11 25" id="p"/><g id="a"><use transform="matrix(0.09320987654320984,0,0,0.09320987654320984,0,0)" xlink:href="#m"/><use transform="matrix(0.09320987654320984,0,0,0.09320987654320984,24.141358024691346,0)" xlink:href="#n"/><use transform="matrix(0.09320987654320984,0,0,0.09320987654320984,50.2401234567901,0)" xlink:href="#o"/><use transform="matrix(0.09320987654320984,0,0,0.09320987654320984,74.38148148148144,0)" xlink:href="#p"/></g><path d="M205 0l-28-72H64L36 0H1l101-248h38L239 0h-34zm-38-99l-47-123c-12 45-31 82-46 123h93" id="q"/><path d="M143 4C61 4 22-44 18-125c-5-107 100-154 193-111 17 8 29 25 37 43l-32 9c-13-25-37-40-76-40-61 0-88 39-88 99 0 61 29 100 91 101 35 0 62-11 79-27v-45h-74v-28h105v86C228-13 192 4 143 4" id="r"/><path d="M233-177c-1 41-23 64-60 70L243 0h-38l-65-103H63V0H30v-248c88 3 205-21 203 71zM63-129c60-2 137 13 137-47 0-61-80-42-137-45v92" id="s"/><path d="M30 0v-248h187v28H63v79h144v27H63v87h162V0H30" id="t"/><g id="b"><use transform="matrix(0.09320987654320984,0,0,0.09320987654320984,0,0)" xlink:href="#q"/><use transform="matrix(0.09320987654320984,0,0,0.09320987654320984,22.37037037037036,0)" xlink:href="#r"/><use transform="matrix(0.09320987654320984,0,0,0.09320987654320984,48.46913580246911,0)" xlink:href="#s"/><use transform="matrix(0.09320987654320984,0,0,0.09320987654320984,72.61049382716045,0)" xlink:href="#t"/></g><path d="M30-248c87 1 191-15 191 75 0 78-77 80-158 76V0H30v-248zm33 125c57 0 124 11 124-50 0-59-68-47-124-48v98" id="u"/><g id="c"><use transform="matrix(0.09320987654320984,0,0,0.09320987654320984,0,0)" xlink:href="#n"/><use transform="matrix(0.09320987654320984,0,0,0.09320987654320984,26.098765432098755,0)" xlink:href="#u"/><use transform="matrix(0.09320987654320984,0,0,0.09320987654320984,48.46913580246911,0)" xlink:href="#t"/><use transform="matrix(0.09320987654320984,0,0,0.09320987654320984,70.83950617283946,0)" xlink:href="#o"/></g><path d="M137 0h-34L2-248h35l83 218 83-218h36" id="v"/><path d="M30 0v-248h33v221h125V0H30" id="w"/><g id="d"><use transform="matrix(0.09320987654320984,0,0,0.09320987654320984,0,0)" xlink:href="#v"/><use transform="matrix(0.09320987654320984,0,0,0.09320987654320984,19.853703703703694,0)" xlink:href="#q"/><use transform="matrix(0.09320987654320984,0,0,0.09320987654320984,42.22407407407405,0)" xlink:href="#w"/></g><path d="M195 0l-74-108L45 0H8l94-129-87-119h37l69 98 67-98h37l-84 118L233 0h-38" id="x"/><path d="M127-220V0H93v-220H8v-28h204v28h-85" id="y"/><g id="e"><use transform="matrix(0.09320987654320984,0,0,0.09320987654320984,0,0)" xlink:href="#t"/><use transform="matrix(0.09320987654320984,0,0,0.09320987654320984,22.37037037037036,0)" xlink:href="#x"/><use transform="matrix(0.09320987654320984,0,0,0.09320987654320984,44.74074074074072,0)" xlink:href="#y"/><use transform="matrix(0.09320987654320984,0,0,0.09320987654320984,65.15370370370367,0)" xlink:href="#s"/><use transform="matrix(0.09320987654320984,0,0,0.09320987654320984,89.29506172839501,0)" xlink:href="#q"/></g><path d="M24 0v-248h52v208h133V0H24" id="z"/><path d="M140-251c80 0 125 45 125 126S219 4 139 4C58 4 15-44 15-125s44-126 125-126zm-1 214c52 0 73-35 73-88 0-50-21-86-72-86-52 0-73 35-73 86s22 88 72 88" id="A"/><path d="M275 0h-61l-44-196L126 0H64L0-248h53L97-49l45-199h58l43 199 44-199h52" id="B"/><g id="f"><use transform="matrix(0.11172839506172831,0,0,0.11172839506172831,0,0)" xlink:href="#z"/><use transform="matrix(0.11172839506172831,0,0,0.11172839506172831,24.4685185185185,0)" xlink:href="#A"/><use transform="matrix(0.11172839506172831,0,0,0.11172839506172831,55.75246913580243,0)" xlink:href="#B"/></g><path d="M186 0v-106H76V0H24v-248h52v99h110v-99h50V0h-50" id="C"/><path d="M24 0v-248h52V0H24" id="D"/><path d="M67-125c0 54 23 88 75 88 28 0 53-7 68-21v-34h-60v-39h108v91C232-14 192 4 140 4 58 4 20-42 15-125 8-236 126-280 215-234c19 10 29 26 37 47l-47 15c-11-23-29-39-63-39-53 1-75 33-75 86" id="E"/><g id="g"><use transform="matrix(0.11172839506172831,0,0,0.11172839506172831,0,0)" xlink:href="#C"/><use transform="matrix(0.11172839506172831,0,0,0.11172839506172831,28.937654320987633,0)" xlink:href="#D"/><use transform="matrix(0.11172839506172831,0,0,0.11172839506172831,40.11049382716047,0)" xlink:href="#E"/><use transform="matrix(0.11172839506172831,0,0,0.11172839506172831,71.39444444444439,0)" xlink:href="#C"/></g><path d="M175 0L67-191c6 58 2 128 3 191H24v-248h59L193-55c-6-58-2-129-3-193h46V0h-61" id="F"/><path d="M136-208V0H84v-208H4v-40h212v40h-80" id="G"/><g id="h"><use transform="matrix(0.08086419753086416,0,0,0.08086419753086416,0,0)" xlink:href="#F"/><use transform="matrix(0.08086419753086416,0,0,0.08086419753086416,20.943827160493818,0)" xlink:href="#A"/><use transform="matrix(0.08086419753086416,0,0,0.08086419753086416,43.58580246913579,0)" xlink:href="#G"/></g><path d="M147 0H94L2-248h55l64 206c17-72 42-137 63-206h54" id="H"/><path d="M24 0v-248h195v40H76v63h132v40H76v65h150V0H24" id="I"/><path d="M24-248c120-7 223 5 221 122C244-46 201 0 124 0H24v-248zM76-40c74 7 117-18 117-86 0-67-45-88-117-82v168" id="J"/><g id="i"><use transform="matrix(0.08086419753086416,0,0,0.08086419753086416,0,0)" xlink:href="#D"/><use transform="matrix(0.08086419753086416,0,0,0.08086419753086416,8.086419753086416,0)" xlink:href="#F"/><use transform="matrix(0.08086419753086416,0,0,0.08086419753086416,29.030246913580235,0)" xlink:href="#H"/><use transform="matrix(0.08086419753086416,0,0,0.08086419753086416,48.43765432098763,0)" xlink:href="#D"/><use transform="matrix(0.08086419753086416,0,0,0.08086419753086416,56.52407407407406,0)" xlink:href="#G"/><use transform="matrix(0.08086419753086416,0,0,0.08086419753086416,74.2333333333333,0)" xlink:href="#I"/><use transform="matrix(0.08086419753086416,0,0,0.08086419753086416,93.64074074074071,0)" xlink:href="#J"/></g><g id="j"><use transform="matrix(0.09320987654320984,0,0,0.09320987654320984,0,0)" xlink:href="#q"/><use transform="matrix(0.09320987654320984,0,0,0.09320987654320984,22.37037037037036,0)" xlink:href="#s"/><use transform="matrix(0.09320987654320984,0,0,0.09320987654320984,46.51172839506171,0)" xlink:href="#n"/></g><g id="k"><use transform="matrix(0.08086419753086416,0,0,0.08086419753086416,0,0)" xlink:href="#D"/><use transform="matrix(0.08086419753086416,0,0,0.08086419753086416,8.086419753086416,0)" xlink:href="#F"/><use transform="matrix(0.08086419753086416,0,0,0.08086419753086416,29.030246913580235,0)" xlink:href="#H"/><use transform="matrix(0.08086419753086416,0,0,0.08086419753086416,48.43765432098763,0)" xlink:href="#D"/><use transform="matrix(0.08086419753086416,0,0,0.08086419753086416,56.52407407407406,0)" xlink:href="#G"/><use transform="matrix(0.08086419753086416,0,0,0.08086419753086416,74.2333333333333,0)" xlink:href="#I"/><use transform="matrix(0.08086419753086416,0,0,0.08086419753086416,93.64074074074071,0)" xlink:href="#J"/></g><path d="M232-93c-1 65-40 97-104 97C67 4 28-28 28-90v-158h33c8 89-33 224 67 224 102 0 64-133 71-224h33v155" id="K"/><g id="l"><use transform="matrix(0.09320987654320984,0,0,0.09320987654320984,0,0)" xlink:href="#o"/><use transform="matrix(0.09320987654320984,0,0,0.09320987654320984,24.141358024691346,0)" xlink:href="#t"/><use transform="matrix(0.09320987654320984,0,0,0.09320987654320984,46.51172839506171,0)" xlink:href="#K"/><use transform="matrix(0.09320987654320984,0,0,0.09320987654320984,70.65308641975305,0)" xlink:href="#s"/></g></defs></g></svg>