<svg xmlns="http://www.w3.org/2000/svg" xmlns:xlink="http://www.w3.org/1999/xlink" xmlns:lucid="lucid" width="951" height="831"><g transform="translate(-9 -20)" lucid:page-tab-id="oYZ9YKgcoV1R"><path d="M780 420h160v40H780z" stroke="#000" stroke-opacity="0" stroke-width="2" fill="#fff" fill-opacity="0"/><use xlink:href="#a" transform="matrix(1,0,0,1,785,425) translate(16.728703703703722 25.066666666666663)"/><path d="M340 40h160v40H340z" stroke="#000" stroke-opacity="0" stroke-width="2" fill="#fff" fill-opacity="0"/><use xlink:href="#b" transform="matrix(1,0,0,1,345,45) translate(16.815740740740758 25.066666666666663)"/><path d="M440 720h160v60H440z" stroke="#000" stroke-opacity="0" stroke-width="2" fill="#fff" fill-opacity="0"/><use xlink:href="#c" transform="matrix(1,0,0,1,445,725) translate(-7.598148148148113 31.266666666666666)"/><path d="M420 773.03V106.97" stroke="#000" stroke-width="6" fill="none"/><path d="M420 790.3l-4.64-14.27h9.28zM420 89.7l4.64 14.27h-9.28z" stroke="#000" stroke-width="6"/><path d="M86.97 440h666.06" stroke="#000" stroke-width="6" fill="none"/><path d="M69.7 440l14.27-4.64v9.28zM770.3 440l-14.27 4.64v-9.28z" stroke="#000" stroke-width="6"/><path d="M440 100h140v60H440z" stroke="#000" stroke-opacity="0" stroke-width="2" fill="#fff" fill-opacity="0"/><use xlink:href="#d" transform="matrix(1,0,0,1,445,105) translate(0.6361111111111342 31.316666666666663)"/><path d="M620 380h140v60H620z" stroke="#000" stroke-opacity="0" stroke-width="2" fill="#fff" fill-opacity="0"/><use xlink:href="#e" transform="matrix(1,0,0,1,625,385) translate(4.117592592592615 31.316666666666663)"/><path d="M60 380h180v60H60z" stroke="#000" stroke-opacity="0" stroke-width="2" fill="#fff" fill-opacity="0"/><use xlink:href="#f" transform="matrix(1,0,0,1,65,385) translate(5.883333333333368 31.316666666666663)"/><path d="M500 240h180v60H500z" stroke="#000" stroke-opacity="0" stroke-width="2" fill="#fff" fill-opacity="0"/><use xlink:href="#g" transform="matrix(1,0,0,1,505,245) translate(37.2601851851852 31.316666666666663)"/><path d="M160 240h180v60H160z" stroke="#000" stroke-opacity="0" stroke-width="2" fill="#fff" fill-opacity="0"/><use xlink:href="#h" transform="matrix(1,0,0,1,165,245) translate(39.871296296296315 31.316666666666663)"/><path d="M160 580h180v60H160z" stroke="#000" stroke-opacity="0" stroke-width="2" fill="#fff" fill-opacity="0"/><use xlink:href="#i" transform="matrix(1,0,0,1,165,585) translate(56.3212962962963 31.316666666666663)"/><path d="M500 580h180v60H500z" stroke="#000" stroke-opacity="0" stroke-width="2" fill="#fff" fill-opacity="0"/><use xlink:href="#j" transform="matrix(1,0,0,1,505,585) translate(25.0314814814815 31.316666666666663)"/><defs><path d="M147 0H94L2-248h55l64 206c17-72 42-137 63-206h54" id="k"/><path d="M133-34C117-15 103 5 69 4 32 3 11-16 11-54c-1-60 55-63 116-61 1-26-3-47-28-47-18 1-26 9-28 27l-52-2c7-38 36-58 82-57s74 22 75 68l1 82c-1 14 12 18 25 15v27c-30 8-71 5-69-32zm-48 3c29 0 43-24 42-57-32 0-66-3-65 30 0 17 8 27 23 27" id="l"/><path d="M25 0v-261h50V0H25" id="m"/><path d="M185-48c-13 30-37 53-82 52C43 2 14-33 14-96s30-98 90-98c62 0 83 45 84 108H66c0 31 8 55 39 56 18 0 30-7 34-22zm-45-69c5-46-57-63-70-21-2 6-4 13-4 21h74" id="n"/><path d="M135-194c87-1 58 113 63 194h-50c-7-57 23-157-34-157-59 0-34 97-39 157H25l-1-190h47c2 12-1 28 3 38 12-26 28-41 61-42" id="o"/><path d="M190-63c-7 42-38 67-86 67-59 0-84-38-90-98-12-110 154-137 174-36l-49 2c-2-19-15-32-35-32-30 0-35 28-38 64-6 74 65 87 74 30" id="p"/><g id="a"><use transform="matrix(0.08703703703703701,0,0,0.08703703703703701,0,0)" xlink:href="#k"/><use transform="matrix(0.08703703703703701,0,0,0.08703703703703701,19.14814814814814,0)" xlink:href="#l"/><use transform="matrix(0.08703703703703701,0,0,0.08703703703703701,36.55555555555554,0)" xlink:href="#m"/><use transform="matrix(0.08703703703703701,0,0,0.08703703703703701,45.259259259259245,0)" xlink:href="#n"/><use transform="matrix(0.08703703703703701,0,0,0.08703703703703701,62.66666666666665,0)" xlink:href="#o"/><use transform="matrix(0.08703703703703701,0,0,0.08703703703703701,81.72777777777775,0)" xlink:href="#p"/><use transform="matrix(0.08703703703703701,0,0,0.08703703703703701,99.13518518518515,0)" xlink:href="#n"/></g><path d="M199 0l-22-63H83L61 0H9l90-248h61L250 0h-51zm-33-102l-36-108c-10 38-24 72-36 108h72" id="q"/><path d="M135-150c-39-12-60 13-60 57V0H25l-1-190h47c2 13-1 29 3 40 6-28 27-53 61-41v41" id="r"/><path d="M110-194c64 0 96 36 96 99 0 64-35 99-97 99-61 0-95-36-95-99 0-62 34-99 96-99zm-1 164c35 0 45-28 45-65 0-40-10-65-43-65-34 0-45 26-45 65 0 36 10 65 43 65" id="s"/><path d="M85 4C-2 5 27-109 22-190h50c7 57-23 150 33 157 60-5 35-97 40-157h50l1 190h-47c-2-12 1-28-3-38-12 25-28 42-61 42" id="t"/><path d="M137-138c1-29-70-34-71-4 15 46 118 7 119 86 1 83-164 76-172 9l43-7c4 19 20 25 44 25 33 8 57-30 24-41C81-84 22-81 20-136c-2-80 154-74 161-7" id="u"/><g id="b"><use transform="matrix(0.08703703703703701,0,0,0.08703703703703701,0,0)" xlink:href="#q"/><use transform="matrix(0.08703703703703701,0,0,0.08703703703703701,22.542592592592584,0)" xlink:href="#r"/><use transform="matrix(0.08703703703703701,0,0,0.08703703703703701,34.72777777777777,0)" xlink:href="#s"/><use transform="matrix(0.08703703703703701,0,0,0.08703703703703701,53.788888888888884,0)" xlink:href="#t"/><use transform="matrix(0.08703703703703701,0,0,0.08703703703703701,72.84999999999998,0)" xlink:href="#u"/><use transform="matrix(0.08703703703703701,0,0,0.08703703703703701,90.25740740740738,0)" xlink:href="#l"/><use transform="matrix(0.08703703703703701,0,0,0.08703703703703701,107.66481481481478,0)" xlink:href="#m"/></g><path d="M30-248c118-7 216 8 213 122C240-48 200 0 122 0H30v-248zM63-27c89 8 146-16 146-99s-60-101-146-95v194" id="v"/><path d="M100-194c63 0 86 42 84 106H49c0 40 14 67 53 68 26 1 43-12 49-29l28 8c-11 28-37 45-77 45C44 4 14-33 15-96c1-61 26-98 85-98zm52 81c6-60-76-77-97-28-3 7-6 17-6 28h103" id="w"/><path d="M141-36C126-15 110 5 73 4 37 3 15-17 15-53c-1-64 63-63 125-63 3-35-9-54-41-54-24 1-41 7-42 31l-33-3c5-37 33-52 76-52 45 0 72 20 72 64v82c-1 20 7 32 28 27v20c-31 9-61-2-59-35zM48-53c0 20 12 33 32 33 41-3 63-29 60-74-43 2-92-5-92 41" id="x"/><path d="M96-169c-40 0-48 33-48 73s9 75 48 75c24 0 41-14 43-38l32 2c-6 37-31 61-74 61-59 0-76-41-82-99-10-93 101-131 147-64 4 7 5 14 7 22l-32 3c-4-21-16-35-41-35" id="y"/><path d="M59-47c-2 24 18 29 38 22v24C64 9 27 4 27-40v-127H5v-23h24l9-43h21v43h35v23H59v120" id="z"/><path d="M24-231v-30h32v30H24zM24 0v-190h32V0H24" id="A"/><path d="M108 0H70L1-190h34L89-25l56-165h34" id="B"/><path d="M85-194c31 0 48 13 60 33l-1-100h32l1 261h-30c-2-10 0-23-3-31C134-8 116 4 85 4 32 4 16-35 15-94c0-66 23-100 70-100zm9 24c-40 0-46 34-46 75 0 40 6 74 45 74 42 0 51-32 51-76 0-42-9-74-50-73" id="C"/><g id="c"><use transform="matrix(0.08703703703703701,0,0,0.08703703703703701,0,0)" xlink:href="#v"/><use transform="matrix(0.08703703703703701,0,0,0.08703703703703701,22.542592592592584,0)" xlink:href="#w"/><use transform="matrix(0.08703703703703701,0,0,0.08703703703703701,39.94999999999999,0)" xlink:href="#x"/><use transform="matrix(0.08703703703703701,0,0,0.08703703703703701,57.357407407407386,0)" xlink:href="#y"/><use transform="matrix(0.08703703703703701,0,0,0.08703703703703701,73.02407407407405,0)" xlink:href="#z"/><use transform="matrix(0.08703703703703701,0,0,0.08703703703703701,81.72777777777775,0)" xlink:href="#A"/><use transform="matrix(0.08703703703703701,0,0,0.08703703703703701,88.60370370370367,0)" xlink:href="#B"/><use transform="matrix(0.08703703703703701,0,0,0.08703703703703701,104.27037037037034,0)" xlink:href="#x"/><use transform="matrix(0.08703703703703701,0,0,0.08703703703703701,121.67777777777773,0)" xlink:href="#z"/><use transform="matrix(0.08703703703703701,0,0,0.08703703703703701,130.38148148148144,0)" xlink:href="#w"/><use transform="matrix(0.08703703703703701,0,0,0.08703703703703701,147.78888888888883,0)" xlink:href="#C"/></g><path d="M205 0l-28-72H64L36 0H1l101-248h38L239 0h-34zm-38-99l-47-123c-12 45-31 82-46 123h93" id="D"/><g id="d"><use transform="matrix(0.08703703703703701,0,0,0.08703703703703701,0,0)" xlink:href="#D"/><use transform="matrix(0.08703703703703701,0,0,0.08703703703703701,20.888888888888882,0)" xlink:href="#y"/><use transform="matrix(0.08703703703703701,0,0,0.08703703703703701,36.55555555555554,0)" xlink:href="#z"/><use transform="matrix(0.08703703703703701,0,0,0.08703703703703701,45.259259259259245,0)" xlink:href="#A"/><use transform="matrix(0.08703703703703701,0,0,0.08703703703703701,52.13518518518517,0)" xlink:href="#B"/><use transform="matrix(0.08703703703703701,0,0,0.08703703703703701,67.80185185185184,0)" xlink:href="#x"/><use transform="matrix(0.08703703703703701,0,0,0.08703703703703701,85.20925925925924,0)" xlink:href="#z"/><use transform="matrix(0.08703703703703701,0,0,0.08703703703703701,93.91296296296294,0)" xlink:href="#w"/><use transform="matrix(0.08703703703703701,0,0,0.08703703703703701,111.32037037037034,0)" xlink:href="#C"/></g><path d="M30-248c87 1 191-15 191 75 0 78-77 80-158 76V0H30v-248zm33 125c57 0 124 11 124-50 0-59-68-47-124-48v98" id="E"/><path d="M24 0v-261h32V0H24" id="F"/><path d="M135-143c-3-34-86-38-87 0 15 53 115 12 119 90S17 21 10-45l28-5c4 36 97 45 98 0-10-56-113-15-118-90-4-57 82-63 122-42 12 7 21 19 24 35" id="G"/><path d="M117-194c89-4 53 116 60 194h-32v-121c0-31-8-49-39-48C34-167 62-67 57 0H25l-1-190h30c1 10-1 24 2 32 11-22 29-35 61-36" id="H"/><g id="e"><use transform="matrix(0.08703703703703701,0,0,0.08703703703703701,0,0)" xlink:href="#E"/><use transform="matrix(0.08703703703703701,0,0,0.08703703703703701,20.888888888888882,0)" xlink:href="#F"/><use transform="matrix(0.08703703703703701,0,0,0.08703703703703701,27.764814814814805,0)" xlink:href="#w"/><use transform="matrix(0.08703703703703701,0,0,0.08703703703703701,45.172222222222196,0)" xlink:href="#x"/><use transform="matrix(0.08703703703703701,0,0,0.08703703703703701,62.57962962962961,0)" xlink:href="#G"/><use transform="matrix(0.08703703703703701,0,0,0.08703703703703701,78.24629629629626,0)" xlink:href="#x"/><use transform="matrix(0.08703703703703701,0,0,0.08703703703703701,95.65370370370367,0)" xlink:href="#H"/><use transform="matrix(0.08703703703703701,0,0,0.08703703703703701,113.06111111111107,0)" xlink:href="#z"/></g><path d="M232-93c-1 65-40 97-104 97C67 4 28-28 28-90v-158h33c8 89-33 224 67 224 102 0 64-133 71-224h33v155" id="I"/><path d="M115-194c55 1 70 41 70 98S169 2 115 4C84 4 66-9 55-30l1 105H24l-1-265h31l2 30c10-21 28-34 59-34zm-8 174c40 0 45-34 45-75s-6-73-45-74c-42 0-51 32-51 76 0 43 10 73 51 73" id="J"/><g id="f"><use transform="matrix(0.08703703703703701,0,0,0.08703703703703701,0,0)" xlink:href="#I"/><use transform="matrix(0.08703703703703701,0,0,0.08703703703703701,22.542592592592584,0)" xlink:href="#H"/><use transform="matrix(0.08703703703703701,0,0,0.08703703703703701,39.94999999999999,0)" xlink:href="#J"/><use transform="matrix(0.08703703703703701,0,0,0.08703703703703701,57.357407407407386,0)" xlink:href="#F"/><use transform="matrix(0.08703703703703701,0,0,0.08703703703703701,64.23333333333332,0)" xlink:href="#w"/><use transform="matrix(0.08703703703703701,0,0,0.08703703703703701,81.64074074074072,0)" xlink:href="#x"/><use transform="matrix(0.08703703703703701,0,0,0.08703703703703701,99.04814814814814,0)" xlink:href="#G"/><use transform="matrix(0.08703703703703701,0,0,0.08703703703703701,114.71481481481477,0)" xlink:href="#x"/><use transform="matrix(0.08703703703703701,0,0,0.08703703703703701,132.12222222222218,0)" xlink:href="#H"/><use transform="matrix(0.08703703703703701,0,0,0.08703703703703701,149.52962962962957,0)" xlink:href="#z"/></g><path fill="#7ab648" d="M168 0l21-106H79L58 0H6l48-248h52l-19 99h110l19-99h50L218 0h-50" id="K"/><path fill="#7ab648" d="M166-52c-4 17 5 29 24 23l-3 27c-30 11-74 1-67-34C105-15 91 4 56 4 23 4 3-15 2-49c0-64 63-67 128-67 10-22 3-53-29-45-13 3-22 10-25 24l-46-5c5-64 156-77 153 0-1 33-11 60-17 90zM97-88c-44-9-64 57-19 57 31 0 42-28 47-57H97" id="L"/><path fill="#7ab648" d="M156-122c2-23-7-37-28-37-47 0-58 44-58 89 0 24 12 40 36 40 43 0 47-49 50-92zM-8 75l50-265h48c0 10-3 24-3 30 22-50 127-45 121 29-6 73-21 135-92 135-29 0-46-14-55-35L41 75H-8" id="M"/><path fill="#7ab648" d="M100 10C77 47 50 87-15 72l7-35c37 9 51-18 65-41L20-190h51L89-44l73-146h53" id="N"/><g id="g"><use transform="matrix(0.08703703703703701,0,0,0.08703703703703701,0,0)" xlink:href="#K"/><use transform="matrix(0.08703703703703701,0,0,0.08703703703703701,22.542592592592584,0)" xlink:href="#L"/><use transform="matrix(0.08703703703703701,0,0,0.08703703703703701,39.94999999999999,0)" xlink:href="#M"/><use transform="matrix(0.08703703703703701,0,0,0.08703703703703701,59.01111111111109,0)" xlink:href="#M"/><use transform="matrix(0.08703703703703701,0,0,0.08703703703703701,78.0722222222222,0)" xlink:href="#N"/></g><path fill="#c92d39" d="M183 0l-10-63H79L44 0H-7l138-248h61L234 0h-51zm-14-102l-15-108c-16 38-36 73-55 108h70" id="O"/><path fill="#c92d39" d="M151-194c95 0 34 128 28 194h-49l25-134c0-29-45-25-59-9C67-111 69-48 56 0H6l36-190h47l-4 32c15-20 33-36 66-36" id="P"/><path fill="#c92d39" d="M45-171c29-32 103-29 114 14 2-11 5-23 8-33h47L176-2c-3 70-92 96-155 64C9 56 1 42-1 25l50-5c2 28 48 27 63 11 13-13 20-45 21-66-13 20-30 35-62 36-87 3-60-134-26-172zM94-35c41-3 55-43 55-86 0-24-12-39-35-39-43 0-51 48-51 90 0 22 9 37 31 35" id="Q"/><path fill="#c92d39" d="M84-151c13-25 34-51 72-40l-8 41C67-170 71-64 56 0H6l36-190h47" id="R"/><path fill="#c92d39" d="M100 10C77 47 50 87-15 72l7-35c37 9 51-18 65-41L20-190h51L89-44l73-146h53" id="S"/><g id="h"><use transform="matrix(0.08703703703703701,0,0,0.08703703703703701,0,0)" xlink:href="#O"/><use transform="matrix(0.08703703703703701,0,0,0.08703703703703701,22.542592592592584,0)" xlink:href="#P"/><use transform="matrix(0.08703703703703701,0,0,0.08703703703703701,41.60370370370369,0)" xlink:href="#Q"/><use transform="matrix(0.08703703703703701,0,0,0.08703703703703701,60.66481481481478,0)" xlink:href="#R"/><use transform="matrix(0.08703703703703701,0,0,0.08703703703703701,72.84999999999997,0)" xlink:href="#S"/></g><path fill="#fcc438" d="M178-136c88 48 22 151-73 140C49-3 12-15 4-64l51-9c1 50 111 53 115 3-16-63-132-20-133-112 0-93 190-91 199-10l-50 12c-4-41-93-50-97-4 7 38 59 32 89 48" id="T"/><path fill="#fcc438" d="M166-52c-4 17 5 29 24 23l-3 27c-30 11-74 1-67-34C105-15 91 4 56 4 23 4 3-15 2-49c0-64 63-67 128-67 10-22 3-53-29-45-13 3-22 10-25 24l-46-5c5-64 156-77 153 0-1 33-11 60-17 90zM97-88c-44-9-64 57-19 57 31 0 42-28 47-57H97" id="U"/><path fill="#fcc438" d="M132-28C118-9 101 4 69 4 30 4 10-23 10-62c0-70 24-129 92-132 31-1 47 14 56 35l19-102h49L179 0h-49zM62-69c0 22 7 39 29 39 45-2 54-45 57-90 2-27-10-40-33-40-44 0-53 48-53 91" id="V"/><g id="i"><use transform="matrix(0.08703703703703701,0,0,0.08703703703703701,0,0)" xlink:href="#T"/><use transform="matrix(0.08703703703703701,0,0,0.08703703703703701,20.888888888888882,0)" xlink:href="#U"/><use transform="matrix(0.08703703703703701,0,0,0.08703703703703701,38.29629629629628,0)" xlink:href="#V"/></g><path fill="#0c7cba" d="M258-177c0 46-32 67-71 75L235 0h-57l-41-94H76L58 0H6l48-248c89 2 204-19 204 71zm-53 3c0-46-63-30-107-33l-14 73c51-2 120 13 121-40" id="W"/><path fill="#0c7cba" d="M114-194c63-2 87 48 72 110H63c-3 28 1 55 31 54 21-1 32-13 37-29l44 13C160-14 137 4 91 4 41 4 11-22 11-73c0-71 33-119 103-121zm30 77c14-47-50-61-67-22-3 6-6 13-8 22h75" id="X"/><path fill="#0c7cba" d="M6 0l51-261h49L55 0H6" id="Y"/><path fill="#0c7cba" d="M166-52c-4 17 5 29 24 23l-3 27c-30 11-74 1-67-34C105-15 91 4 56 4 23 4 3-15 2-49c0-64 63-67 128-67 10-22 3-53-29-45-13 3-22 10-25 24l-46-5c5-64 156-77 153 0-1 33-11 60-17 90zM97-88c-44-9-64 57-19 57 31 0 42-28 47-57H97" id="Z"/><path fill="#0c7cba" d="M127 0L95-67 37 0h-53l89-99-49-91h52l30 61 52-61h54l-85 92 52 98h-52" id="aa"/><path fill="#0c7cba" d="M132-28C118-9 101 4 69 4 30 4 10-23 10-62c0-70 24-129 92-132 31-1 47 14 56 35l19-102h49L179 0h-49zM62-69c0 22 7 39 29 39 45-2 54-45 57-90 2-27-10-40-33-40-44 0-53 48-53 91" id="ab"/><g id="j"><use transform="matrix(0.08703703703703701,0,0,0.08703703703703701,0,0)" xlink:href="#W"/><use transform="matrix(0.08703703703703701,0,0,0.08703703703703701,22.542592592592584,0)" xlink:href="#X"/><use transform="matrix(0.08703703703703701,0,0,0.08703703703703701,39.94999999999999,0)" xlink:href="#Y"/><use transform="matrix(0.08703703703703701,0,0,0.08703703703703701,48.65370370370369,0)" xlink:href="#Z"/><use transform="matrix(0.08703703703703701,0,0,0.08703703703703701,66.06111111111109,0)" xlink:href="#aa"/><use transform="matrix(0.08703703703703701,0,0,0.08703703703703701,83.4685185185185,0)" xlink:href="#X"/><use transform="matrix(0.08703703703703701,0,0,0.08703703703703701,100.8759259259259,0)" xlink:href="#ab"/></g></defs></g></svg>